<?xml version="1.0" encoding="UTF-8"?>
<svg version="1.1" xmlns="http://www.w3.org/2000/svg" width="512" height="605">
<path d="M0 0 C168.96 0 337.92 0 512 0 C512 199.65 512 399.3 512 605 C343.04 605 174.08 605 0 605 C0 405.35 0 205.7 0 0 Z " fill="#1A1A1B" transform="translate(0,0)"/>
<path d="M0 0 C2.57591717 1.31100357 4.327864 2.984991 6.40234375 5 C16.57580427 14.39890716 28.59035551 21.81275588 40.96484375 28 C40.96484375 28.66 40.96484375 29.32 40.96484375 30 C41.83109375 30.28875 42.69734375 30.5775 43.58984375 30.875 C48.27734375 32.4375 48.27734375 32.4375 52.96484375 34 C52.96484375 34.66 52.96484375 35.32 52.96484375 36 C54.63546875 36.061875 54.63546875 36.061875 56.33984375 36.125 C60.04608587 36.57698075 62.36298394 37.69961809 65.46484375 39.75 C72.07763364 44.04105802 79.44323399 45.89096302 86.96484375 48 C86.96484375 48.66 86.96484375 49.32 86.96484375 50 C87.56167969 50.08636719 88.15851563 50.17273438 88.7734375 50.26171875 C94.84988469 51.24586844 100.64717524 52.71762047 106.52734375 54.5 C116.40369705 57.47181715 126.00056236 59.22410988 136.25390625 60.3034668 C141.75916061 60.89715843 141.75916061 60.89715843 143.96484375 62 C145.70121072 62.2887902 147.44507697 62.53321629 149.19140625 62.75390625 C150.22265625 62.88603516 151.25390625 63.01816406 152.31640625 63.15429688 C153.39664062 63.28900391 154.476875 63.42371094 155.58984375 63.5625 C156.6778125 63.70107422 157.76578125 63.83964844 158.88671875 63.98242188 C161.57903243 64.32486528 164.27173029 64.66391411 166.96484375 65 C167.01175593 85.90713534 167.04692613 106.81426189 167.06846809 127.72143936 C167.07874035 137.43101012 167.09272232 147.14054801 167.11572266 156.85009766 C167.13578153 165.32201816 167.14858954 173.79391482 167.15302074 182.26585841 C167.15560716 186.74342348 167.16159978 191.22092041 167.17630386 195.69846344 C167.2490796 218.78024819 167.04119324 241.14912182 161.71484375 263.75 C161.5604483 264.414552 161.40605286 265.079104 161.24697876 265.76379395 C157.1442132 283.3548121 150.67109788 298.23011568 141.96484375 314 C141.2627135 315.29801088 140.56086991 316.59617689 139.859375 317.89453125 C135.53455402 325.79026615 130.54423314 332.94197385 124.96484375 340 C123.99417969 341.26070313 123.99417969 341.26070313 123.00390625 342.546875 C110.82775916 358.15222269 96.62377957 372.88481203 80.96484375 385 C79.96066406 385.79792969 78.95648438 386.59585937 77.921875 387.41796875 C69.90554042 393.74671882 61.55392393 399.47928498 52.96484375 405 C51.92972656 405.66644531 50.89460937 406.33289063 49.828125 407.01953125 C43.20236401 411.18502248 36.42207151 415.05997158 29.58984375 418.875 C28.74526611 419.35187256 27.90068848 419.82874512 27.03051758 420.32006836 C22.39309315 422.87885332 18.12678534 424.78951774 12.96484375 426 C12.96484375 426.66 12.96484375 427.32 12.96484375 428 C2.79157967 432.35729877 -2.80770128 432.30316873 -13.03515625 428.4375 C-15.03870951 427.63380193 -17.03996326 426.82423369 -19.03515625 426 C-19.03515625 425.34 -19.03515625 424.68 -19.03515625 424 C-19.75703125 423.87625 -20.47890625 423.7525 -21.22265625 423.625 C-23.99237519 423.0095069 -26.43219165 422.11555626 -29.03515625 421 C-29.03515625 420.34 -29.03515625 419.68 -29.03515625 419 C-29.71578125 418.731875 -30.39640625 418.46375 -31.09765625 418.1875 C-32.06703125 417.795625 -33.03640625 417.40375 -34.03515625 417 C-35.08703125 416.5875 -36.13890625 416.175 -37.22265625 415.75 C-42.05313885 413.66605286 -46.77036091 411.0806067 -51.03515625 408 C-51.03515625 407.34 -51.03515625 406.68 -51.03515625 406 C-51.88464844 405.76667969 -52.73414063 405.53335937 -53.609375 405.29296875 C-57.48650149 403.82965191 -60.55253475 401.76206368 -63.84765625 399.3125 C-64.4600415 398.86624268 -65.07242676 398.41998535 -65.70336914 397.96020508 C-69.89098045 394.89347828 -74.00957895 391.74266514 -78.078125 388.51953125 C-80.43130634 386.69241041 -82.85939014 384.99685299 -85.33203125 383.3359375 C-87.76990704 381.42365879 -89.85269248 379.19821026 -92.03515625 377 C-93.09310349 376.01451034 -94.15717786 375.03556666 -95.2265625 374.0625 C-96.05510742 373.30839844 -96.05510742 373.30839844 -96.90039062 372.5390625 C-98.03404633 371.51107551 -99.16947297 370.4850382 -100.30664062 369.4609375 C-103.55402497 366.49841143 -106.31675735 363.46887712 -109.03515625 360 C-110.68724456 358.31888139 -112.35441485 356.65247205 -114.03515625 355 C-119.72131295 349.0487331 -124.9741883 343.03441658 -129.5625 336.19140625 C-131.01891505 333.9669461 -131.01891505 333.9669461 -132.7265625 331.83984375 C-134.03515625 330 -134.03515625 330 -134.03515625 328 C-134.69515625 328 -135.35515625 328 -136.03515625 328 C-149.03515625 305.36111111 -149.03515625 305.36111111 -149.03515625 301 C-149.69515625 301 -150.35515625 301 -151.03515625 301 C-151.33808594 300.05640625 -151.64101562 299.1128125 -151.953125 298.140625 C-153.96017208 291.96907651 -155.99609504 285.92733376 -158.66015625 280 C-161.57450038 273.21204487 -162.79156404 266.25037723 -164.03515625 259 C-164.409408 256.99985985 -164.78432812 254.99984455 -165.16015625 253 C-166.40019069 246.21244304 -167.2276148 239.4823876 -167.59056091 232.59671021 C-167.63271522 231.81115222 -167.67486953 231.02559424 -167.71830124 230.21623147 C-168.11483067 222.2927495 -168.16938237 214.38421426 -168.14868164 206.45263672 C-168.14839845 204.89335126 -168.14856006 203.33406566 -168.14912415 201.77478027 C-168.149407 197.60654551 -168.14359438 193.43834047 -168.13655019 189.27011251 C-168.13023014 184.88996634 -168.12970609 180.50981922 -168.12852478 176.12966919 C-168.12543667 167.86417542 -168.11725781 159.59869513 -168.10717529 151.33320725 C-168.09593518 141.9109637 -168.09048395 132.48871946 -168.08547986 123.06647086 C-168.07507263 103.71097298 -168.05752282 84.35548758 -168.03515625 65 C-167.05869141 64.86948242 -166.08222656 64.73896484 -165.07617188 64.60449219 C-161.36966001 64.10658708 -157.66487833 63.59664755 -153.96044922 63.08349609 C-152.37266481 62.86516375 -150.78445811 62.64987558 -149.19580078 62.43798828 C-138.23285259 60.9730218 -127.72600957 58.83914202 -117.03515625 56 C-114.79893535 55.47039034 -112.56095793 54.94806674 -110.3203125 54.4375 C-109.28455078 54.19773438 -108.24878906 53.95796875 -107.18164062 53.7109375 C-105.09967847 53.23099182 -103.01629475 52.75717731 -100.93164062 52.2890625 C-95.28797581 50.97114454 -90.15702299 49.37262791 -84.91821289 46.88769531 C-82.73544439 45.85871226 -80.52752157 45.08484721 -78.22265625 44.375 C-76.01908465 43.69265543 -74.02898642 42.99690344 -71.96484375 41.9609375 C-70.03515625 41 -70.03515625 41 -66.97265625 40.25 C-61.55938301 38.74884019 -56.89153362 35.75326633 -52.03515625 33 C-50.59484454 32.20764256 -49.15335683 31.41742045 -47.7109375 30.62890625 C-34.66223754 23.48289456 -22.49007216 15.76771882 -10.63671875 6.76953125 C-9.70520996 6.06497803 -9.70520996 6.06497803 -8.75488281 5.34619141 C-7.22444736 4.14817592 -5.76066387 2.86610348 -4.30859375 1.57421875 C-2.03515625 0 -2.03515625 0 0 0 Z " fill="#1A1A1B" transform="translate(262.03515625,78)"/>
<path d="M0 0 C4.81913918 2.33277056 8.26604166 6.24927239 12 10 C23.2462101 20.88575464 35.88626462 30.11915395 50 37 C50 37.66 50 38.32 50 39 C50.61488281 39.20496094 51.22976563 39.40992188 51.86328125 39.62109375 C55.2421875 40.74739583 58.62109375 41.87369792 62 43 C62 43.66 62 44.32 62 45 C62.60585938 45.17015625 63.21171875 45.3403125 63.8359375 45.515625 C70.81824254 47.53512246 77.46608987 50.08008814 84.15454102 52.91235352 C90.31360669 55.46409666 96.49154293 57.3795654 102.9375 59.0625 C104.77994792 59.55338542 106.62239583 60.04427083 108.46484375 60.53515625 C109.3775 60.77451904 110.29015625 61.01388184 111.23046875 61.26049805 C113.0864622 61.75607317 114.93811961 62.2681634 116.78515625 62.79614258 C122.87295823 64.52977281 128.85331518 65.73054181 135.125 66.5625 C139.88574699 67.2103466 144.56792769 67.86075072 149.23046875 69.03515625 C156.64703091 70.75662563 164.37988683 70.71330954 171.95898438 71.03515625 C183.26655693 71.67715019 183.26655693 71.67715019 188 76 C188.69888871 76.54470853 189.39777742 77.08941706 190.11784458 77.6506319 C192.71849181 80.89684503 192.55323433 83.78555121 192.50120544 87.76957703 C192.50673984 88.55729282 192.51227424 89.34500861 192.51797634 90.15659457 C192.53160304 92.79962172 192.51660233 95.44170777 192.50170898 98.0847168 C192.50549183 99.97888592 192.51099159 101.87305228 192.51808167 103.76721191 C192.53207038 108.91889572 192.52083697 114.07024673 192.50437045 119.22191215 C192.49051842 124.62318924 192.49698121 130.02444702 192.50050354 135.42573547 C192.50320855 144.51084747 192.48971538 153.5958276 192.46655273 162.6809082 C192.44004521 173.14964624 192.43816166 183.61816233 192.4499411 194.08692235 C192.46077249 204.18042667 192.45448324 214.27385156 192.44038582 224.36734962 C192.43466181 228.64880081 192.43468053 232.93019317 192.43945122 237.21164513 C192.44427077 242.27521179 192.43391607 247.33854002 192.41249657 252.40206146 C192.40699175 254.24774433 192.40640432 256.09345041 192.41144943 257.9391346 C192.43617494 268.29393383 191.802751 278.0673464 189.72749424 288.22544575 C188.98863922 292.05894464 188.52611375 295.80634246 188.125 299.6875 C187.16748151 307.25913779 184.75619152 313.92019815 182 321 C181.48821774 322.53779551 180.98658589 324.07904713 180.5 325.625 C177.64022625 334.31741966 173.75026676 342.66275358 170 351 C169.24928198 352.6871807 168.49926814 354.37467492 167.75 356.0625 C167.16666667 357.375 166.58333333 358.6875 166 360 C165.34 360 164.68 360 164 360 C163.74476563 360.86238281 163.48953125 361.72476562 163.2265625 362.61328125 C159.62326155 372.56252304 152.33024706 381.63272843 146 390 C145.45988281 390.72316406 144.91976563 391.44632812 144.36328125 392.19140625 C130.66851275 410.1968767 114.94490407 427.18036123 97 441 C95.84100936 441.9445638 94.68496445 442.89274893 93.53125 443.84375 C85.03459813 450.81960902 76.26691272 457.09307536 67 463 C66.33822754 463.42555176 65.67645508 463.85110352 64.99462891 464.28955078 C40.52292133 480 40.52292133 480 36 480 C35.67 480.99 35.34 481.98 35 483 C33.06995348 483.76536328 31.13382227 484.51945774 29.16796875 485.1875 C26.5859151 486.15518858 24.33957868 487.54415896 21.984375 488.96484375 C18.65994606 490.69904389 15.09648515 491.77498068 11.5546875 492.984375 C8.79067847 493.94920933 8.79067847 493.94920933 6.0625 496.25 C0.79976362 499.25727793 -5.38679426 498.89048865 -11.203125 497.45703125 C-13.18658249 496.72734465 -15.08118778 495.88501876 -17 495 C-18.51938451 494.4129033 -20.04034259 493.82986949 -21.5625 493.25 C-38.90384685 486.22899808 -55.42087471 477.35157826 -71 467 C-72.04027344 466.319375 -72.04027344 466.319375 -73.1015625 465.625 C-75.41340776 464.10108702 -77.70713773 462.55235268 -80 461 C-80.87664307 460.4119458 -80.87664307 460.4119458 -81.77099609 459.81201172 C-90.53940252 453.92343576 -98.95856957 447.86658314 -107 441 C-108.07335973 440.11094105 -109.14762425 439.22297364 -110.22265625 438.3359375 C-116.92223984 432.75979756 -123.26978906 426.91052832 -129.4375 420.75 C-130.4123938 419.7763147 -130.4123938 419.7763147 -131.40698242 418.78295898 C-146.3835671 403.63332351 -159.28813994 386.15951079 -170.2421875 367.91015625 C-171.74948905 365.41473479 -173.32517798 362.9901963 -174.9375 360.5625 C-176.91197772 357.44176509 -177.72033184 354.72890882 -178 351 C-178.99 350.67 -179.98 350.34 -181 350 C-181.95480048 347.65340572 -182.7253067 345.41954178 -183.4375 343 C-183.86763845 341.62261411 -184.3012265 340.24630068 -184.73828125 338.87109375 C-184.95049316 338.20319824 -185.16270508 337.53530273 -185.38134766 336.84716797 C-186.3783739 333.87025377 -187.65127413 331.04977824 -189.0078125 328.22265625 C-191.92743028 321.68225264 -193.7029959 315.39172428 -195 308.375 C-195.3401457 306.59486069 -195.68129532 304.81491292 -196.0234375 303.03515625 C-196.18811523 302.17293457 -196.35279297 301.31071289 -196.52246094 300.42236328 C-197.15701131 297.20354486 -197.89138675 294.01001634 -198.625 290.8125 C-201.64384447 276.67928559 -202.29803542 262.67491595 -202.2746582 248.2746582 C-202.27901856 246.46909884 -202.28420604 244.66354131 -202.29014587 242.85798645 C-202.30339147 238.01161608 -202.30413187 233.16532435 -202.30158257 228.31893945 C-202.30050495 224.26010466 -202.30541526 220.20128529 -202.310188 216.14245385 C-202.32122877 206.57290319 -202.32174854 197.00339182 -202.31567383 187.43383789 C-202.30961079 177.5729889 -202.32201632 167.71228175 -202.3432439 157.85145694 C-202.3608502 149.35936175 -202.36686359 140.86731179 -202.36360615 132.37519902 C-202.36179478 127.31370014 -202.36441685 122.25230296 -202.37832069 117.19082069 C-202.39088188 112.4423131 -202.38897123 107.69402834 -202.37590981 102.94552422 C-202.37354239 101.20485484 -202.37628463 99.46416982 -202.38453293 97.72351837 C-202.39498618 95.34624772 -202.38691228 92.96972725 -202.3742218 90.59248352 C-202.38159609 89.90562212 -202.38897037 89.21876072 -202.39656812 88.51108533 C-202.33723263 83.22178828 -200.79674817 79.51544744 -197.75 75.25 C-193.2262786 72.01877043 -187.50894626 71.76035103 -182.125 71.5625 C-175.73737684 71.20973186 -169.63035876 70.34224647 -163.34936523 69.15649414 C-158.63667942 68.27088515 -153.94825766 67.57868249 -149.1875 67 C-142.61190582 66.15131366 -136.38920212 64.74115099 -130 63 C-128.54344806 62.62184691 -127.08637617 62.2456932 -125.62890625 61.87109375 C-105.00574824 56.77914582 -105.00574824 56.77914582 -85.31640625 49.00390625 C-82.17219707 47.64123886 -79.40325955 47.22688397 -76 47 C-76 46.34 -76 45.68 -76 45 C-74.845 44.525625 -73.69 44.05125 -72.5 43.5625 C-54.17206025 35.34062048 -36.45257843 23.96173615 -22 10 C-9.17241803 -1.68633802 -9.17241803 -1.68633802 0 0 Z M-12.8125 40.4375 C-23.00345788 48.80754172 -33.92437007 55.49091672 -45.39453125 61.9453125 C-49.99538767 64.54563046 -54.51149386 67.28629956 -59.02709961 70.03125 C-63.45398684 72.71209335 -67.21053474 74.98597895 -72.3125 75.9375 C-76.49421554 76.81464033 -80.09039508 78.24741849 -84 80 C-87.64686023 81.38980954 -91.3214705 82.69674955 -95 84 C-96.04414063 84.38671875 -96.04414063 84.38671875 -97.109375 84.78125 C-102.63282557 86.75085253 -108.29491997 88.08196311 -114.00634766 89.37890625 C-114.67585449 89.53101563 -115.34536133 89.683125 -116.03515625 89.83984375 C-117.10539284 90.08244179 -117.10539284 90.08244179 -118.19725037 90.3299408 C-120.25032119 90.82077272 -122.29517548 91.34632329 -124.3344574 91.89161682 C-134.65387414 94.61768483 -144.92861487 96.34004068 -155.5 97.75 C-157.11339183 97.97185356 -158.72667396 98.1945064 -160.33984375 98.41796875 C-164.22536689 98.95448276 -168.11218817 99.48034198 -172 100 C-172.02344619 120.28976619 -172.04103641 140.5795296 -172.05181217 160.86930656 C-172.05695036 170.29194468 -172.06394541 179.71457434 -172.07543945 189.13720703 C-172.08546244 197.35787148 -172.0918714 205.57852979 -172.09408849 213.79920018 C-172.09538277 218.14477557 -172.09838616 222.49033344 -172.10573006 226.83590317 C-172.11261096 230.94148641 -172.11459292 235.04704521 -172.11310768 239.15263367 C-172.11337867 240.64475259 -172.11531119 242.13687249 -172.11920547 243.62898636 C-172.13897321 251.60692421 -171.9850086 259.55128759 -171.55149841 267.51858521 C-171.51217919 268.24412594 -171.47285998 268.96966667 -171.43234926 269.71719348 C-170.87958078 279.02104115 -169.97861935 288.13562881 -167 297 C-166.73818783 298.74541449 -166.5099378 300.49613693 -166.3125 302.25 C-165.19576289 309.46376146 -162.50715809 315.89343461 -159.75390625 322.60546875 C-157.95570527 327.00295084 -156.44786944 331.47665617 -155 336 C-154.34 336 -153.68 336 -153 336 C-152.72800781 336.87011719 -152.45601562 337.74023438 -152.17578125 338.63671875 C-149.18878719 347.18091106 -144.47707122 355.15522034 -140 363 C-139.34 363 -138.68 363 -138 363 C-137.59974609 364.10988281 -137.59974609 364.10988281 -137.19140625 365.2421875 C-136.02375558 367.94501168 -134.77451906 369.84066897 -132.9375 372.125 C-132.32003906 372.89714844 -131.70257813 373.66929687 -131.06640625 374.46484375 C-130.38449219 375.30144531 -129.70257813 376.13804687 -129 377 C-128.24589844 377.92941406 -127.49179688 378.85882813 -126.71484375 379.81640625 C-124.48558011 382.55181322 -122.24443314 385.27703678 -120 388 C-119.50242188 388.61230469 -119.00484375 389.22460938 -118.4921875 389.85546875 C-115.83378572 393.10741306 -113.00301058 396.06523966 -110 399 C-109.34 399.68191406 -108.68 400.36382812 -108 401.06640625 C-103.62789708 405.55236602 -99.19430379 409.59084388 -94.140625 413.296875 C-92 415 -92 415 -89.609375 417.40625 C-82.89565152 424.07977154 -74.78595332 429.53783715 -67.0625 435 C-66.04285156 435.721875 -65.02320313 436.44375 -63.97265625 437.1875 C-61.02467888 438.98495269 -58.30910313 440.05313294 -55 441 C-55 441.66 -55 442.32 -55 443 C-44.72175022 450.48412049 -44.72175022 450.48412049 -33 454 C-33 454.66 -33 455.32 -33 456 C-28.18790099 458.29045014 -28.18790099 458.29045014 -23 459 C-23 459.66 -23 460.32 -23 461 C-8.26877747 467.12840416 -8.26877747 467.12840416 6.875 463.91015625 C7.57625 463.60980469 8.2775 463.30945313 9 463 C9 462.34 9 461.68 9 461 C9.53294678 460.84362061 10.06589355 460.68724121 10.61499023 460.52612305 C16.82803063 458.5931622 22.37248588 455.94856836 28.0625 452.8125 C29.47402344 452.03724976 29.47402344 452.03724976 30.9140625 451.24633789 C47.51889077 441.94714182 63.38478991 431.19448076 78 419 C78.81259277 418.33750244 78.81259277 418.33750244 79.64160156 417.66162109 C93.64885932 406.24150955 107.22132147 393.54529367 118 379 C118.78246094 378.02289063 119.56492187 377.04578125 120.37109375 376.0390625 C130.08313125 363.89994769 137.37747076 350.71007622 144.140625 336.75390625 C145.3047141 334.37810623 146.53133117 332.03566678 147.75 329.6875 C152.10070355 320.9114533 154.68905632 311.8839584 156.625 302.3125 C157.0327201 300.35002446 157.44155342 298.38777984 157.8515625 296.42578125 C158.02510254 295.57411377 158.19864258 294.72244629 158.37744141 293.8449707 C158.85522724 291.66158313 159.39836606 289.49241321 159.96936035 287.33152771 C164.72747794 268.22563874 163.26696536 247.60037322 163.20278788 228.05767918 C163.19013317 223.54275185 163.18909857 219.02782075 163.18673706 214.51287842 C163.18056499 205.99597923 163.16421317 197.47913248 163.14403808 188.96225619 C163.12154459 179.2521901 163.11065212 169.54212127 163.10064721 159.83203554 C163.07984224 139.88799463 163.04475106 119.94400064 163 100 C162.35039307 99.91959473 161.70078613 99.83918945 161.03149414 99.75634766 C158.04125804 99.38366466 155.05189428 99.00437401 152.0625 98.625 C151.04091797 98.49867188 150.01933594 98.37234375 148.96679688 98.2421875 C143.52775857 97.54710273 138.20444749 96.71003956 132.87121582 95.42843628 C130.10425184 94.79490821 127.31600634 94.46654532 124.5 94.125 C112.32836358 92.4461536 100.50594127 89.27789412 88.7578125 85.734375 C85.99248979 84.87133906 85.99248979 84.87133906 83 85 C83 84.34 83 83.68 83 83 C81.948125 82.74476562 81.948125 82.74476562 80.875 82.484375 C74.09990264 80.75377948 68.16219908 78.61518704 62.234375 74.890625 C57.67647328 72.05733474 54.24818784 71.36829388 49 71 C49 70.34 49 69.68 49 69 C47.3767313 68.3291288 45.75132422 67.66342971 44.125 67 C43.22007812 66.62875 42.31515625 66.2575 41.3828125 65.875 C39.11016142 64.88509774 39.11016142 64.88509774 37 65 C37 64.34 37 63.68 37 63 C36.33355469 62.64808594 35.66710937 62.29617187 34.98046875 61.93359375 C22.18870465 55.08150193 8.88414778 47.27211991 -1.22265625 36.66796875 C-5.63744576 32.52485859 -9.23003341 37.41180181 -12.8125 40.4375 Z " fill="#F9F9F9" transform="translate(266,43)"/>
<path d="M0 0 C0.6640625 1.7890625 0.6640625 1.7890625 1 4 C-0.0390625 5.7109375 -0.0390625 5.7109375 -1.625 7.375 C-2.17671875 7.97183594 -2.7284375 8.56867188 -3.296875 9.18359375 C-3.85890625 9.78300781 -4.4209375 10.38242187 -5 11 C-5.96678406 12.13871216 -6.92597578 13.2839447 -7.875 14.4375 C-8.57625 15.283125 -9.2775 16.12875 -10 17 C-10.66 16.67 -11.32 16.34 -12 16 C-11.30132812 15.09636719 -10.60265625 14.19273437 -9.8828125 13.26171875 C-8.96349026 12.07035217 -8.04422226 10.87894373 -7.125 9.6875 C-6.66480469 9.09259766 -6.20460938 8.49769531 -5.73046875 7.88476562 C-3.73752851 5.29971995 -1.81133955 2.71700932 0 0 Z " fill="#484848" transform="translate(417,425)"/>
<path d="M0 0 C0.66 0.33 1.32 0.66 2 1 C0.93283928 2.20205464 -0.15438337 3.38632333 -1.25 4.5625 C-2.15492188 5.55443359 -2.15492188 5.55443359 -3.078125 6.56640625 C-3.71234375 7.03949219 -4.3465625 7.51257813 -5 8 C-6.32 7.67 -7.64 7.34 -9 7 C-6.03 4.69 -3.06 2.38 0 0 Z " fill="#474747" transform="translate(354,490)"/>
<path d="M0 0 C0 0.66 0 1.32 0 2 C-0.99 2 -1.98 2 -3 2 C-3 2.66 -3 3.32 -3 4 C-5.31 4.33 -7.62 4.66 -10 5 C-7.31217681 1.88778367 -4.19734673 0 0 0 Z " fill="#565655" transform="translate(284,533)"/>
</svg>
