<?xml version="1.0" encoding="UTF-8"?>
<svg version="1.1" xmlns="http://www.w3.org/2000/svg" width="192" height="192">
<path d="M0 0 C63.36 0 126.72 0 192 0 C192 63.36 192 126.72 192 192 C128.64 192 65.28 192 0 192 C0 128.64 0 65.28 0 0 Z " fill="#1A1A1C" transform="translate(0,0)"/>
<path d="M0 0 C3.88200477 0.76117741 5.5775768 2.33028186 8.60546875 4.7734375 C17.96160286 11.48267739 29.09659075 15.83534517 40.1875 18.625 C41.29480469 18.91117188 42.40210938 19.19734375 43.54296875 19.4921875 C51.35200961 21.34518025 58.79981132 22.0303983 66.7890625 22.21875 C70.45333013 22.65677739 71.63598387 23.04437433 74.1875 25.625 C74.68870544 28.2587738 74.68870544 28.2587738 74.68920898 31.46655273 C74.69858994 32.66888046 74.70797089 33.87120819 74.71763611 35.10997009 C74.70078514 37.0645388 74.70078514 37.0645388 74.68359375 39.05859375 C74.68374886 40.4156146 74.6852399 41.77263589 74.68800354 43.12965393 C74.68938939 45.98043306 74.67681435 48.83071033 74.65405273 51.68139648 C74.62590982 55.30235099 74.6283358 58.92245646 74.64114285 62.54347134 C74.64817119 65.35172007 74.64022633 68.15977967 74.62788582 70.96800423 C74.62127548 72.94182891 74.62547972 74.91568051 74.62998962 76.88951111 C74.44992894 94.36011503 69.09110473 109.01662511 58.1875 122.625 C57.66671875 123.31078125 57.1459375 123.9965625 56.609375 124.703125 C45.01773753 139.1048564 27.65575656 148.02829237 11 155.1875 C10.19796143 155.53449951 9.39592285 155.88149902 8.56958008 156.23901367 C3.54875127 158.31801306 -0.01667477 159.51555383 -5.36328125 157.8125 C-8.53025605 156.45074563 -11.67834496 155.06105097 -14.8125 153.625 C-15.43656738 153.34092285 -16.06063477 153.0568457 -16.70361328 152.76416016 C-39.98464312 142.04454447 -59.2217563 126.54966364 -69.8125 102.625 C-70.15410156 101.87089844 -70.49570313 101.11679688 -70.84765625 100.33984375 C-73.95799765 91.5880734 -74.10964257 83.22966647 -74.078125 74.03515625 C-74.07947468 72.6403344 -74.08141773 71.245513 -74.08392334 69.85069275 C-74.08685352 66.94688376 -74.08264079 64.04319876 -74.07324219 61.1394043 C-74.0617739 57.41466857 -74.06846647 53.69021878 -74.08038712 49.9654932 C-74.08759944 47.09423142 -74.085322 44.22303801 -74.08013153 41.35177422 C-74.07879714 39.9774211 -74.08043541 38.60306178 -74.08509064 37.2287159 C-74.09015336 35.31662231 -74.08107258 33.4045069 -74.07128906 31.49243164 C-74.06969788 30.40483047 -74.06810669 29.31722931 -74.06646729 28.19667053 C-73.8125 25.625 -73.8125 25.625 -71.8125 23.625 C-68.92364141 23.20309773 -66.09158099 22.8759126 -63.1875 22.625 C-57.18797936 22.09126999 -51.63189144 21.1989494 -45.8125 19.625 C-44.83925781 19.40199219 -43.86601563 19.17898437 -42.86328125 18.94921875 C-29.67763246 15.88322623 -15.76915631 11.03868678 -5.11328125 2.44921875 C-2.8125 0.625 -2.8125 0.625 0 0 Z " fill="#1B1B1C" transform="translate(97.8125,13.375)"/>
<path d="M0 0 C3.88200477 0.76117741 5.5775768 2.33028186 8.60546875 4.7734375 C17.96160286 11.48267739 29.09659075 15.83534517 40.1875 18.625 C41.29480469 18.91117188 42.40210938 19.19734375 43.54296875 19.4921875 C51.35200961 21.34518025 58.79981132 22.0303983 66.7890625 22.21875 C70.45333013 22.65677739 71.63598387 23.04437433 74.1875 25.625 C74.68870544 28.2587738 74.68870544 28.2587738 74.68920898 31.46655273 C74.69858994 32.66888046 74.70797089 33.87120819 74.71763611 35.10997009 C74.70078514 37.0645388 74.70078514 37.0645388 74.68359375 39.05859375 C74.68374886 40.4156146 74.6852399 41.77263589 74.68800354 43.12965393 C74.68938939 45.98043306 74.67681435 48.83071033 74.65405273 51.68139648 C74.62590982 55.30235099 74.6283358 58.92245646 74.64114285 62.54347134 C74.64817119 65.35172007 74.64022633 68.15977967 74.62788582 70.96800423 C74.62127548 72.94182891 74.62547972 74.91568051 74.62998962 76.88951111 C74.44992894 94.36011503 69.09110473 109.01662511 58.1875 122.625 C57.66671875 123.31078125 57.1459375 123.9965625 56.609375 124.703125 C45.01773753 139.1048564 27.65575656 148.02829237 11 155.1875 C10.19796143 155.53449951 9.39592285 155.88149902 8.56958008 156.23901367 C3.54875127 158.31801306 -0.01667477 159.51555383 -5.36328125 157.8125 C-8.53025605 156.45074563 -11.67834496 155.06105097 -14.8125 153.625 C-15.43656738 153.34092285 -16.06063477 153.0568457 -16.70361328 152.76416016 C-39.98464312 142.04454447 -59.2217563 126.54966364 -69.8125 102.625 C-70.15410156 101.87089844 -70.49570313 101.11679688 -70.84765625 100.33984375 C-73.95799765 91.5880734 -74.10964257 83.22966647 -74.078125 74.03515625 C-74.07947468 72.6403344 -74.08141773 71.245513 -74.08392334 69.85069275 C-74.08685352 66.94688376 -74.08264079 64.04319876 -74.07324219 61.1394043 C-74.0617739 57.41466857 -74.06846647 53.69021878 -74.08038712 49.9654932 C-74.08759944 47.09423142 -74.085322 44.22303801 -74.08013153 41.35177422 C-74.07879714 39.9774211 -74.08043541 38.60306178 -74.08509064 37.2287159 C-74.09015336 35.31662231 -74.08107258 33.4045069 -74.07128906 31.49243164 C-74.06969788 30.40483047 -74.06810669 29.31722931 -74.06646729 28.19667053 C-73.8125 25.625 -73.8125 25.625 -71.8125 23.625 C-68.92364141 23.20309773 -66.09158099 22.8759126 -63.1875 22.625 C-57.18797936 22.09126999 -51.63189144 21.1989494 -45.8125 19.625 C-44.83925781 19.40199219 -43.86601563 19.17898437 -42.86328125 18.94921875 C-29.67763246 15.88322623 -15.76915631 11.03868678 -5.11328125 2.44921875 C-2.8125 0.625 -2.8125 0.625 0 0 Z M-5.76147461 14.52075195 C-17.72345847 21.68996856 -30.26493512 25.64344996 -43.75 28.9375 C-44.3989624 29.09710205 -45.0479248 29.2567041 -45.71655273 29.42114258 C-49.6578981 30.32135401 -53.54346833 30.82476165 -57.57250977 31.17260742 C-58.55590836 31.2585466 -59.53930695 31.34448578 -60.55250549 31.43302917 C-61.67120277 31.52805473 -61.67120277 31.52805473 -62.8125 31.625 C-62.88897933 39.39877981 -62.94127939 47.17246147 -62.97729492 54.9465332 C-62.99231981 57.58752061 -63.0127455 60.22848332 -63.03881836 62.86938477 C-63.07547878 66.67991251 -63.09229006 70.49010844 -63.10546875 74.30078125 C-63.12095261 75.46893875 -63.13643646 76.63709625 -63.15238953 77.84065247 C-63.15587982 95.09752662 -56.6049283 109.80659394 -44.5625 121.9453125 C-43.655 122.82960938 -42.7475 123.71390625 -41.8125 124.625 C-41.07 125.36492187 -40.3275 126.10484375 -39.5625 126.8671875 C-31.21642172 134.75300411 -21.16029087 140.13843866 -10.9375 145.1875 C-10.23625 145.54650391 -9.535 145.90550781 -8.8125 146.27539062 C-3.21762571 148.93986973 0.57647896 148.67450858 6.56640625 146.93359375 C29.61621209 137.73841181 50.15782435 122.03137172 60.36328125 98.98828125 C63.15856167 90.97337766 63.45514673 83.82250938 63.3828125 75.375 C63.37856766 73.49421753 63.37856766 73.49421753 63.37423706 71.57543945 C63.36498144 68.2677535 63.34706217 64.96026818 63.3248291 61.65264893 C63.30424364 58.26715531 63.29520839 54.88163213 63.28515625 51.49609375 C63.26316874 44.87231832 63.22974576 38.24867555 63.1875 31.625 C61.49681396 31.4388916 61.49681396 31.4388916 59.77197266 31.24902344 C39.32073759 28.95309015 21.10044039 24.59364719 3.69921875 13.1640625 C-0.44660641 10.62369685 -1.80821067 12.13610549 -5.76147461 14.52075195 Z " fill="#F6F6F6" transform="translate(97.8125,13.375)"/>
</svg>
